<svg xmlns="http://www.w3.org/2000/svg" xmlns:xlink="http://www.w3.org/1999/xlink" width="500" zoomAndPan="magnify" viewBox="0 0 375 374.999991" height="500" preserveAspectRatio="xMidYMid meet" version="1.0"><path fill="#5d4321" d="M 187.421875 -0.0507812 C 290.960938 -0.0507812 374.890625 83.882812 374.890625 187.421875 C 374.890625 290.960938 290.960938 374.890625 187.421875 374.890625 C 83.882812 374.890625 -0.0507812 290.960938 -0.0507812 187.421875 C -0.0507812 83.882812 83.882812 -0.0507812 187.421875 -0.0507812 " fill-opacity="1" fill-rule="evenodd"/><path fill="#ffffff" d="M 110.507812 223.511719 L 264.339844 223.511719 L 286.179688 100.921875 L 88.675781 100.921875 Z M 272.84375 243.828125 L 102.011719 243.828125 C 97.167969 243.828125 92.871094 240.347656 92.007812 235.417969 L 66.632812 92.980469 C 66.480469 92.265625 66.394531 91.523438 66.394531 90.765625 C 66.394531 85.152344 70.9375 80.605469 76.550781 80.605469 L 298.296875 80.605469 C 298.875 80.613281 299.457031 80.660156 300.042969 80.765625 C 305.570312 81.726562 309.265625 86.988281 308.296875 92.511719 L 282.910156 235.035156 C 282.242188 240 277.988281 243.828125 272.84375 243.828125 " fill-opacity="1" fill-rule="evenodd"/><path fill="#ffffff" d="M 151.90625 306.347656 C 161.425781 306.347656 169.152344 314.066406 169.152344 323.59375 C 169.152344 333.121094 161.425781 340.839844 151.898438 340.839844 C 142.378906 340.839844 134.652344 333.121094 134.652344 323.59375 C 134.660156 314.066406 142.378906 306.347656 151.90625 306.347656 " fill-opacity="1" fill-rule="evenodd"/><path fill="#ffffff" d="M 222.941406 306.347656 C 232.476562 306.347656 240.1875 314.066406 240.1875 323.59375 C 240.1875 333.121094 232.46875 340.839844 222.941406 340.839844 C 213.421875 340.839844 205.695312 333.121094 205.695312 323.59375 C 205.695312 314.066406 213.421875 306.347656 222.941406 306.347656 " fill-opacity="1" fill-rule="evenodd"/><path fill="#ffffff" d="M 114.226562 268.523438 L 273.429688 268.523438 C 277.046875 268.523438 280.304688 267.066406 282.65625 264.714844 L 282.695312 264.683594 C 285.046875 262.332031 286.503906 259.066406 286.503906 255.457031 C 286.503906 251.847656 285.042969 248.582031 282.695312 246.230469 L 282.65625 246.191406 C 280.3125 243.847656 277.039062 242.382812 273.429688 242.382812 L 114.226562 242.382812 L 114.226562 224.953125 L 273.429688 224.953125 C 281.777344 224.953125 289.378906 228.371094 294.917969 233.878906 L 294.976562 233.941406 C 300.511719 239.476562 303.933594 247.101562 303.933594 255.457031 C 303.933594 263.792969 300.515625 271.402344 295.007812 276.941406 L 294.949219 277.003906 C 289.410156 282.527344 281.789062 285.953125 273.429688 285.953125 L 113.414062 285.953125 C 108.621094 285.953125 104.703125 282.03125 104.703125 277.242188 C 104.703125 272.445312 108.621094 268.53125 113.414062 268.53125 L 114.226562 268.523438 " fill-opacity="1" fill-rule="evenodd"/><path fill="#ffffff" d="M 276.253906 68.585938 C 270.644531 68.585938 266.097656 64.035156 266.097656 58.429688 C 266.097656 52.816406 270.644531 48.269531 276.253906 48.269531 L 335.0625 48.269531 C 340.675781 48.269531 345.222656 52.816406 345.222656 58.429688 C 345.226562 64.035156 340.675781 68.585938 335.0625 68.585938 L 276.253906 68.585938 " fill-opacity="1" fill-rule="evenodd"/><path fill="#ffffff" d="M 177.265625 90.765625 C 177.265625 85.152344 181.816406 80.605469 187.425781 80.605469 C 193.035156 80.605469 197.585938 85.15625 197.585938 90.765625 L 197.585938 233.671875 C 197.585938 239.28125 193.035156 243.828125 187.425781 243.828125 C 181.816406 243.828125 177.265625 239.28125 177.265625 233.671875 L 177.265625 90.765625 " fill-opacity="1" fill-rule="evenodd"/><path fill="#ffffff" d="M 89.28125 172.375 C 83.667969 172.375 79.125 167.828125 79.125 162.21875 C 79.125 156.605469 83.667969 152.058594 89.28125 152.058594 L 285.574219 152.058594 C 291.179688 152.058594 295.730469 156.605469 295.730469 162.21875 C 295.730469 167.828125 291.179688 172.375 285.566406 172.375 L 89.28125 172.375 " fill-opacity="1" fill-rule="evenodd"/></svg>