<svg width="320" height="160" viewBox="0 0 320 160" fill="none" xmlns="http://www.w3.org/2000/svg">
<path d="M53.7708 73.824V92H46.9868V73.824L30.1547 46.048H36.1388C36.7361 46.048 37.2161 46.1973 37.5788 46.496C37.9414 46.7733 38.2401 47.1467 38.4748 47.616L48.4588 64.8C48.8641 65.5893 49.2268 66.336 49.5468 67.04C49.8881 67.744 50.1868 68.4373 50.4428 69.12C50.6774 68.4373 50.9441 67.744 51.2428 67.04C51.5628 66.336 51.9254 65.5893 52.3308 64.8L62.2828 47.616C62.4961 47.232 62.7841 46.88 63.1468 46.56C63.5308 46.2187 64.0108 46.048 64.5868 46.048H70.6028L53.7708 73.824ZM116.511 69.024C116.511 72.4587 115.957 75.616 114.847 78.496C113.759 81.3547 112.213 83.8293 110.207 85.92C108.202 87.9893 105.802 89.6 103.007 90.752C100.213 91.904 97.1086 92.48 93.6953 92.48C90.3033 92.48 87.1993 91.904 84.3833 90.752C81.5886 89.6 79.1886 87.9893 77.1833 85.92C75.1993 83.8293 73.6526 81.3547 72.5433 78.496C71.4339 75.616 70.8793 72.4587 70.8793 69.024C70.8793 65.6107 71.4339 62.464 72.5433 59.584C73.6526 56.704 75.1993 54.2293 77.1833 52.16C79.1886 50.0693 81.5886 48.448 84.3833 47.296C87.1993 46.1227 90.3033 45.536 93.6953 45.536C97.1086 45.536 100.213 46.1227 103.007 47.296C105.802 48.448 108.202 50.0693 110.207 52.16C112.213 54.2293 113.759 56.704 114.847 59.584C115.957 62.464 116.511 65.6107 116.511 69.024ZM109.535 69.024C109.535 66.2933 109.162 63.84 108.415 61.664C107.669 59.488 106.602 57.6427 105.215 56.128C103.85 54.6133 102.186 53.4507 100.223 52.64C98.2819 51.8293 96.1059 51.424 93.6953 51.424C91.2846 51.424 89.0979 51.8293 87.1353 52.64C85.1939 53.4507 83.5299 54.6133 82.1433 56.128C80.7566 57.6427 79.6899 59.488 78.9433 61.664C78.1966 63.84 77.8233 66.2933 77.8233 69.024C77.8233 71.776 78.1966 74.24 78.9433 76.416C79.6899 78.5707 80.7566 80.4053 82.1433 81.92C83.5299 83.4347 85.1939 84.5973 87.1353 85.408C89.0979 86.1973 91.2846 86.592 93.6953 86.592C96.1059 86.592 98.2819 86.1973 100.223 85.408C102.186 84.5973 103.85 83.4347 105.215 81.92C106.602 80.4053 107.669 78.5707 108.415 76.416C109.162 74.24 109.535 71.776 109.535 69.024ZM153.582 86.464L153.55 92H125.07V46.048H153.55V51.584H131.918V66.144H149.326V71.488H131.918V86.464H153.582ZM193.583 73.824V92H186.799V73.824L169.967 46.048H175.951C176.549 46.048 177.029 46.1973 177.391 46.496C177.754 46.7733 178.053 47.1467 178.287 47.616L188.271 64.8C188.677 65.5893 189.039 66.336 189.359 67.04C189.701 67.744 189.999 68.4373 190.255 69.12C190.49 68.4373 190.757 67.744 191.055 67.04C191.375 66.336 191.738 65.5893 192.143 64.8L202.095 47.616C202.309 47.232 202.597 46.88 202.959 46.56C203.343 46.2187 203.823 46.048 204.399 46.048H210.415L193.583 73.824ZM235.861 74.88L229.045 57.056C228.555 55.84 228.064 54.304 227.573 52.448C227.339 53.3653 227.093 54.2187 226.837 55.008C226.603 55.7973 226.368 56.5013 226.133 57.12L219.349 74.88H235.861ZM249.333 92H244.085C243.488 92 242.997 91.8507 242.613 91.552C242.229 91.2533 241.952 90.8693 241.781 90.4L237.717 79.744H217.461L213.397 90.4C213.248 90.8053 212.971 91.1787 212.565 91.52C212.16 91.84 211.669 92 211.093 92H205.845L224.149 46.048H231.029L249.333 92ZM268.094 68.192C269.844 68.192 271.38 67.9787 272.702 67.552C274.046 67.1253 275.166 66.528 276.062 65.76C276.958 64.9707 277.63 64.0427 278.078 62.976C278.526 61.888 278.75 60.6933 278.75 59.392C278.75 56.7467 277.876 54.752 276.126 53.408C274.398 52.064 271.796 51.392 268.318 51.392H261.886V68.192H268.094ZM289.534 92H283.454C282.238 92 281.353 91.52 280.798 90.56L269.438 74.624C269.076 74.0907 268.681 73.7173 268.254 73.504C267.828 73.2693 267.188 73.152 266.334 73.152H261.886V92H255.07V46.048H268.318C271.284 46.048 273.833 46.3573 275.966 46.976C278.121 47.5733 279.892 48.4373 281.278 49.568C282.686 50.6773 283.721 52.0213 284.382 53.6C285.065 55.1787 285.406 56.9493 285.406 58.912C285.406 60.512 285.161 62.016 284.67 63.424C284.18 64.832 283.454 66.1013 282.494 67.232C281.556 68.3413 280.404 69.3013 279.038 70.112C277.673 70.9227 276.126 71.5413 274.398 71.968C275.252 72.48 275.988 73.1947 276.606 74.112L289.534 92Z" fill="#5D432A"/>
<path d="M37.3375 124.31C37.8775 124.31 38.3375 124.247 38.7175 124.12C39.1042 123.993 39.4175 123.82 39.6575 123.6C39.9042 123.38 40.0842 123.12 40.1975 122.82C40.3108 122.513 40.3675 122.18 40.3675 121.82C40.3675 121.107 40.1208 120.547 39.6275 120.14C39.1342 119.727 38.3708 119.52 37.3375 119.52H34.3375V124.31H37.3375ZM34.3375 113.31V118.01H36.7875C37.8342 118.01 38.6108 117.8 39.1175 117.38C39.6308 116.953 39.8875 116.38 39.8875 115.66C39.8875 114.84 39.6442 114.243 39.1575 113.87C38.6708 113.497 37.9142 113.31 36.8875 113.31H34.3375ZM36.8875 111.64C37.7875 111.64 38.5575 111.727 39.1975 111.9C39.8442 112.073 40.3742 112.323 40.7875 112.65C41.2008 112.977 41.5042 113.373 41.6975 113.84C41.8975 114.3 41.9975 114.823 41.9975 115.41C41.9975 115.757 41.9442 116.09 41.8375 116.41C41.7308 116.73 41.5675 117.03 41.3475 117.31C41.1275 117.583 40.8508 117.83 40.5175 118.05C40.1842 118.27 39.7908 118.453 39.3375 118.6C41.4242 119.013 42.4675 120.103 42.4675 121.87C42.4675 122.483 42.3542 123.043 42.1275 123.55C41.9008 124.05 41.5708 124.483 41.1375 124.85C40.7042 125.217 40.1708 125.5 39.5375 125.7C38.9042 125.9 38.1842 126 37.3775 126H32.2075V111.64H36.8875ZM53.0505 115.84V126H51.8805C51.6138 126 51.4405 125.87 51.3605 125.61L51.2205 124.59C51.0005 124.823 50.7705 125.037 50.5305 125.23C50.2905 125.423 50.0338 125.59 49.7605 125.73C49.4871 125.863 49.1971 125.967 48.8905 126.04C48.5838 126.12 48.2538 126.16 47.9005 126.16C47.3405 126.16 46.8471 126.067 46.4205 125.88C46.0005 125.693 45.6471 125.433 45.3605 125.1C45.0738 124.76 44.8571 124.353 44.7105 123.88C44.5638 123.407 44.4905 122.883 44.4905 122.31V115.84H46.4505V122.31C46.4505 123.037 46.6171 123.603 46.9505 124.01C47.2838 124.41 47.7938 124.61 48.4805 124.61C48.9805 124.61 49.4471 124.493 49.8805 124.26C50.3138 124.02 50.7205 123.693 51.1005 123.28V115.84H53.0505ZM57.6123 117.79C57.939 117.123 58.3323 116.6 58.7923 116.22C59.2523 115.84 59.8057 115.65 60.4523 115.65C60.6723 115.65 60.879 115.677 61.0723 115.73C61.2723 115.777 61.4457 115.85 61.5923 115.95L61.4623 117.42C61.4157 117.6 61.3057 117.69 61.1323 117.69C61.039 117.69 60.899 117.673 60.7123 117.64C60.5257 117.6 60.3257 117.58 60.1123 117.58C59.799 117.58 59.5223 117.627 59.2823 117.72C59.0423 117.807 58.8257 117.94 58.6323 118.12C58.4457 118.293 58.279 118.51 58.1323 118.77C57.9857 119.023 57.849 119.313 57.7223 119.64V126H55.7723V115.84H56.8923C57.1057 115.84 57.249 115.88 57.3223 115.96C57.4023 116.033 57.459 116.167 57.4923 116.36L57.6123 117.79ZM63.0966 126V115.84H64.2666C64.5399 115.84 64.7099 115.97 64.7766 116.23L64.9166 117.2C65.2899 116.753 65.7032 116.39 66.1566 116.11C66.6166 115.823 67.1532 115.68 67.7666 115.68C68.4399 115.68 68.9866 115.867 69.4066 116.24C69.8266 116.607 70.1332 117.107 70.3266 117.74C70.4732 117.38 70.6632 117.07 70.8966 116.81C71.1299 116.55 71.3899 116.337 71.6766 116.17C71.9632 116.003 72.2666 115.88 72.5866 115.8C72.9132 115.72 73.2432 115.68 73.5766 115.68C74.1166 115.68 74.5966 115.767 75.0166 115.94C75.4432 116.107 75.8032 116.353 76.0966 116.68C76.3899 117.007 76.6132 117.41 76.7666 117.89C76.9199 118.37 76.9966 118.917 76.9966 119.53V126H75.0366V119.53C75.0366 118.77 74.8699 118.197 74.5366 117.81C74.2099 117.423 73.7299 117.23 73.0966 117.23C72.8166 117.23 72.5499 117.28 72.2966 117.38C72.0432 117.473 71.8199 117.617 71.6266 117.81C71.4399 118.003 71.2899 118.243 71.1766 118.53C71.0699 118.817 71.0166 119.15 71.0166 119.53V126H69.0566V119.53C69.0566 118.743 68.8999 118.163 68.5866 117.79C68.2732 117.417 67.8132 117.23 67.2066 117.23C66.7866 117.23 66.3966 117.34 66.0366 117.56C65.6766 117.78 65.3466 118.08 65.0466 118.46V126H63.0966ZM86.35 119.79C86.35 119.403 86.2933 119.047 86.18 118.72C86.0733 118.393 85.9133 118.11 85.7 117.87C85.4867 117.63 85.2267 117.443 84.92 117.31C84.6133 117.177 84.26 117.11 83.86 117.11C83.04 117.11 82.3933 117.347 81.92 117.82C81.4533 118.293 81.1567 118.95 81.03 119.79H86.35ZM87.96 124.55C87.72 124.83 87.4433 125.073 87.13 125.28C86.8167 125.48 86.4833 125.643 86.13 125.77C85.7767 125.897 85.41 125.99 85.03 126.05C84.6567 126.11 84.2867 126.14 83.92 126.14C83.22 126.14 82.57 126.023 81.97 125.79C81.3767 125.55 80.86 125.203 80.42 124.75C79.9867 124.29 79.6467 123.723 79.4 123.05C79.16 122.37 79.04 121.59 79.04 120.71C79.04 120.003 79.15 119.347 79.37 118.74C79.59 118.127 79.9033 117.593 80.31 117.14C80.7233 116.687 81.2267 116.33 81.82 116.07C82.4133 115.81 83.08 115.68 83.82 115.68C84.44 115.68 85.01 115.783 85.53 115.99C86.0567 116.19 86.51 116.483 86.89 116.87C87.27 117.257 87.5667 117.733 87.78 118.3C88 118.867 88.11 119.513 88.11 120.24C88.11 120.54 88.0767 120.743 88.01 120.85C87.9433 120.95 87.82 121 87.64 121H80.98C81 121.607 81.0867 122.137 81.24 122.59C81.3933 123.037 81.6033 123.41 81.87 123.71C82.1433 124.01 82.4667 124.233 82.84 124.38C83.2133 124.527 83.63 124.6 84.09 124.6C84.5233 124.6 84.8967 124.55 85.21 124.45C85.53 124.35 85.8033 124.243 86.03 124.13C86.2633 124.01 86.4567 123.9 86.61 123.8C86.77 123.7 86.91 123.65 87.03 123.65C87.19 123.65 87.3133 123.71 87.4 123.83L87.96 124.55ZM96.1959 117.59C96.1426 117.677 96.0859 117.74 96.0259 117.78C95.9659 117.813 95.8893 117.83 95.7959 117.83C95.6893 117.83 95.5693 117.793 95.4359 117.72C95.3093 117.647 95.1526 117.567 94.9659 117.48C94.7859 117.393 94.5726 117.313 94.3259 117.24C94.0793 117.167 93.7859 117.13 93.4459 117.13C93.1659 117.13 92.9093 117.167 92.6759 117.24C92.4493 117.307 92.2559 117.403 92.0959 117.53C91.9359 117.65 91.8126 117.797 91.7259 117.97C91.6393 118.137 91.5959 118.317 91.5959 118.51C91.5959 118.763 91.6693 118.973 91.8159 119.14C91.9693 119.307 92.1659 119.45 92.4059 119.57C92.6526 119.69 92.9293 119.8 93.2359 119.9C93.5493 119.993 93.8659 120.093 94.1859 120.2C94.5126 120.307 94.8293 120.43 95.1359 120.57C95.4493 120.703 95.7259 120.873 95.9659 121.08C96.2126 121.28 96.4093 121.523 96.5559 121.81C96.7093 122.097 96.7859 122.447 96.7859 122.86C96.7859 123.333 96.6993 123.773 96.5259 124.18C96.3593 124.58 96.1093 124.927 95.7759 125.22C95.4493 125.513 95.0426 125.743 94.5559 125.91C94.0693 126.077 93.5126 126.16 92.8859 126.16C92.1859 126.16 91.5393 126.043 90.9459 125.81C90.3526 125.577 89.8559 125.28 89.4559 124.92L89.9159 124.17C89.9693 124.077 90.0359 124.007 90.1159 123.96C90.1959 123.907 90.3026 123.88 90.4359 123.88C90.5626 123.88 90.6926 123.927 90.8259 124.02C90.9593 124.113 91.1193 124.217 91.3059 124.33C91.4926 124.437 91.7193 124.537 91.9859 124.63C92.2526 124.717 92.5859 124.76 92.9859 124.76C93.3193 124.76 93.6093 124.72 93.8559 124.64C94.1026 124.553 94.3059 124.44 94.4659 124.3C94.6326 124.153 94.7559 123.987 94.8359 123.8C94.9159 123.613 94.9559 123.417 94.9559 123.21C94.9559 122.943 94.8793 122.723 94.7259 122.55C94.5793 122.37 94.3826 122.217 94.1359 122.09C93.8959 121.963 93.6193 121.853 93.3059 121.76C92.9926 121.667 92.6726 121.567 92.3459 121.46C92.0193 121.353 91.6993 121.23 91.3859 121.09C91.0726 120.95 90.7926 120.773 90.5459 120.56C90.3059 120.347 90.1093 120.087 89.9559 119.78C89.8093 119.473 89.7359 119.1 89.7359 118.66C89.7359 118.267 89.8159 117.89 89.9759 117.53C90.1426 117.17 90.3793 116.853 90.6859 116.58C90.9993 116.307 91.3826 116.09 91.8359 115.93C92.2959 115.763 92.8193 115.68 93.4059 115.68C94.0793 115.68 94.6859 115.787 95.2259 116C95.7726 116.213 96.2393 116.507 96.6259 116.88L96.1959 117.59ZM105.627 119.79C105.627 119.403 105.571 119.047 105.457 118.72C105.351 118.393 105.191 118.11 104.977 117.87C104.764 117.63 104.504 117.443 104.197 117.31C103.891 117.177 103.537 117.11 103.137 117.11C102.317 117.11 101.671 117.347 101.197 117.82C100.731 118.293 100.434 118.95 100.307 119.79H105.627ZM107.237 124.55C106.997 124.83 106.721 125.073 106.407 125.28C106.094 125.48 105.761 125.643 105.407 125.77C105.054 125.897 104.687 125.99 104.307 126.05C103.934 126.11 103.564 126.14 103.197 126.14C102.497 126.14 101.847 126.023 101.247 125.79C100.654 125.55 100.137 125.203 99.6973 124.75C99.264 124.29 98.924 123.723 98.6773 123.05C98.4373 122.37 98.3173 121.59 98.3173 120.71C98.3173 120.003 98.4273 119.347 98.6473 118.74C98.8673 118.127 99.1807 117.593 99.5873 117.14C100.001 116.687 100.504 116.33 101.097 116.07C101.691 115.81 102.357 115.68 103.097 115.68C103.717 115.68 104.287 115.783 104.807 115.99C105.334 116.19 105.787 116.483 106.167 116.87C106.547 117.257 106.844 117.733 107.057 118.3C107.277 118.867 107.387 119.513 107.387 120.24C107.387 120.54 107.354 120.743 107.287 120.85C107.221 120.95 107.097 121 106.917 121H100.257C100.277 121.607 100.364 122.137 100.517 122.59C100.671 123.037 100.881 123.41 101.147 123.71C101.421 124.01 101.744 124.233 102.117 124.38C102.491 124.527 102.907 124.6 103.367 124.6C103.801 124.6 104.174 124.55 104.487 124.45C104.807 124.35 105.081 124.243 105.307 124.13C105.541 124.01 105.734 123.9 105.887 123.8C106.047 123.7 106.187 123.65 106.307 123.65C106.467 123.65 106.591 123.71 106.677 123.83L107.237 124.55ZM124.126 113.42H119.566V126H117.446V113.42H112.866V111.64H124.126V113.42ZM125.483 117.79C125.81 117.123 126.203 116.6 126.663 116.22C127.123 115.84 127.677 115.65 128.323 115.65C128.543 115.65 128.75 115.677 128.943 115.73C129.143 115.777 129.317 115.85 129.463 115.95L129.333 117.42C129.287 117.6 129.177 117.69 129.003 117.69C128.91 117.69 128.77 117.673 128.583 117.64C128.397 117.6 128.197 117.58 127.983 117.58C127.67 117.58 127.393 117.627 127.153 117.72C126.913 117.807 126.697 117.94 126.503 118.12C126.317 118.293 126.15 118.51 126.003 118.77C125.857 119.023 125.72 119.313 125.593 119.64V126H123.643V115.84H124.763C124.977 115.84 125.12 115.88 125.193 115.96C125.273 116.033 125.33 116.167 125.363 116.36L125.483 117.79ZM136.271 121.49C135.478 121.517 134.805 121.58 134.251 121.68C133.698 121.773 133.248 121.9 132.901 122.06C132.555 122.22 132.305 122.41 132.151 122.63C131.998 122.843 131.921 123.083 131.921 123.35C131.921 123.603 131.961 123.823 132.041 124.01C132.128 124.19 132.241 124.34 132.381 124.46C132.528 124.573 132.698 124.657 132.891 124.71C133.085 124.763 133.295 124.79 133.521 124.79C133.821 124.79 134.095 124.76 134.341 124.7C134.595 124.64 134.831 124.557 135.051 124.45C135.271 124.337 135.481 124.2 135.681 124.04C135.881 123.88 136.078 123.697 136.271 123.49V121.49ZM130.551 117.26C131.118 116.72 131.731 116.317 132.391 116.05C133.058 115.783 133.788 115.65 134.581 115.65C135.161 115.65 135.675 115.747 136.121 115.94C136.568 116.127 136.945 116.39 137.251 116.73C137.558 117.07 137.788 117.477 137.941 117.95C138.101 118.423 138.181 118.947 138.181 119.52V126H137.311C137.118 126 136.971 125.97 136.871 125.91C136.771 125.843 136.691 125.723 136.631 125.55L136.421 124.66C136.161 124.9 135.905 125.113 135.651 125.3C135.398 125.48 135.131 125.637 134.851 125.77C134.578 125.897 134.285 125.993 133.971 126.06C133.658 126.127 133.311 126.16 132.931 126.16C132.531 126.16 132.155 126.107 131.801 126C131.455 125.887 131.151 125.717 130.891 125.49C130.631 125.263 130.425 124.98 130.271 124.64C130.125 124.3 130.051 123.903 130.051 123.45C130.051 123.05 130.158 122.667 130.371 122.3C130.591 121.927 130.945 121.593 131.431 121.3C131.925 121.007 132.565 120.767 133.351 120.58C134.145 120.393 135.118 120.287 136.271 120.26V119.52C136.271 118.753 136.108 118.18 135.781 117.8C135.455 117.42 134.975 117.23 134.341 117.23C133.915 117.23 133.555 117.283 133.261 117.39C132.975 117.497 132.725 117.617 132.511 117.75C132.305 117.877 132.121 117.993 131.961 118.1C131.808 118.207 131.648 118.26 131.481 118.26C131.348 118.26 131.231 118.223 131.131 118.15C131.038 118.077 130.961 117.99 130.901 117.89L130.551 117.26ZM147.342 118.3C147.022 117.88 146.675 117.587 146.302 117.42C145.935 117.253 145.522 117.17 145.062 117.17C144.169 117.17 143.475 117.493 142.982 118.14C142.495 118.78 142.252 119.717 142.252 120.95C142.252 121.597 142.305 122.15 142.412 122.61C142.525 123.063 142.685 123.437 142.892 123.73C143.105 124.017 143.365 124.23 143.672 124.37C143.979 124.503 144.325 124.57 144.712 124.57C145.279 124.57 145.769 124.443 146.182 124.19C146.595 123.937 146.982 123.58 147.342 123.12V118.3ZM149.302 111.24V126H148.122C147.849 126 147.679 125.87 147.612 125.61L147.442 124.44C147.009 124.953 146.515 125.367 145.962 125.68C145.415 125.987 144.782 126.14 144.062 126.14C143.482 126.14 142.955 126.027 142.482 125.8C142.015 125.573 141.615 125.243 141.282 124.81C140.949 124.37 140.692 123.827 140.512 123.18C140.332 122.533 140.242 121.79 140.242 120.95C140.242 120.197 140.342 119.497 140.542 118.85C140.742 118.203 141.032 117.643 141.412 117.17C141.792 116.697 142.252 116.327 142.792 116.06C143.332 115.787 143.942 115.65 144.622 115.65C145.235 115.65 145.755 115.75 146.182 115.95C146.615 116.15 147.002 116.433 147.342 116.8V111.24H149.302ZM154.062 115.84V126H152.112V115.84H154.062ZM154.432 112.7C154.432 112.88 154.396 113.053 154.322 113.22C154.249 113.38 154.149 113.523 154.022 113.65C153.902 113.77 153.759 113.867 153.592 113.94C153.426 114.007 153.252 114.04 153.072 114.04C152.892 114.04 152.722 114.007 152.562 113.94C152.402 113.867 152.259 113.77 152.132 113.65C152.012 113.523 151.916 113.38 151.842 113.22C151.776 113.053 151.742 112.88 151.742 112.7C151.742 112.513 151.776 112.34 151.842 112.18C151.916 112.013 152.012 111.87 152.132 111.75C152.259 111.623 152.402 111.527 152.562 111.46C152.722 111.387 152.892 111.35 153.072 111.35C153.252 111.35 153.426 111.387 153.592 111.46C153.759 111.527 153.902 111.623 154.022 111.75C154.149 111.87 154.249 112.013 154.322 112.18C154.396 112.34 154.432 112.513 154.432 112.7ZM166.516 126H164.556V117.42H159.456V123.37C159.456 123.77 159.552 124.07 159.746 124.27C159.946 124.463 160.199 124.56 160.506 124.56C160.686 124.56 160.839 124.537 160.966 124.49C161.099 124.443 161.212 124.393 161.306 124.34C161.399 124.28 161.479 124.227 161.546 124.18C161.612 124.133 161.672 124.11 161.726 124.11C161.792 124.11 161.842 124.127 161.876 124.16C161.916 124.187 161.956 124.233 161.996 124.3L162.576 125.24C162.256 125.533 161.876 125.76 161.436 125.92C160.996 126.08 160.539 126.16 160.066 126.16C159.246 126.16 158.612 125.93 158.166 125.47C157.726 125.01 157.506 124.353 157.506 123.5V117.42H156.326C156.212 117.42 156.116 117.387 156.036 117.32C155.962 117.247 155.926 117.14 155.926 117V116.21L157.586 115.98L158.016 112.95C158.042 112.837 158.092 112.75 158.166 112.69C158.246 112.623 158.346 112.59 158.466 112.59H159.456V116H166.516V126ZM166.956 112.64C166.956 112.82 166.919 112.993 166.846 113.16C166.772 113.32 166.672 113.463 166.546 113.59C166.426 113.71 166.282 113.807 166.116 113.88C165.949 113.947 165.776 113.98 165.596 113.98C165.416 113.98 165.246 113.947 165.086 113.88C164.926 113.807 164.782 113.71 164.656 113.59C164.536 113.463 164.439 113.32 164.366 113.16C164.299 112.993 164.266 112.82 164.266 112.64C164.266 112.453 164.299 112.277 164.366 112.11C164.439 111.943 164.536 111.8 164.656 111.68C164.782 111.553 164.926 111.457 165.086 111.39C165.246 111.317 165.416 111.28 165.596 111.28C165.776 111.28 165.949 111.317 166.116 111.39C166.282 111.457 166.426 111.553 166.546 111.68C166.672 111.8 166.772 111.943 166.846 112.11C166.919 112.277 166.956 112.453 166.956 112.64ZM173.677 115.68C174.423 115.68 175.097 115.803 175.697 116.05C176.303 116.29 176.817 116.64 177.237 117.1C177.663 117.553 177.99 118.103 178.217 118.75C178.443 119.39 178.557 120.11 178.557 120.91C178.557 121.71 178.443 122.433 178.217 123.08C177.99 123.727 177.663 124.277 177.237 124.73C176.817 125.183 176.303 125.533 175.697 125.78C175.097 126.02 174.423 126.14 173.677 126.14C172.923 126.14 172.243 126.02 171.637 125.78C171.037 125.533 170.523 125.183 170.097 124.73C169.67 124.277 169.34 123.727 169.107 123.08C168.88 122.433 168.767 121.71 168.767 120.91C168.767 120.11 168.88 119.39 169.107 118.75C169.34 118.103 169.67 117.553 170.097 117.1C170.523 116.64 171.037 116.29 171.637 116.05C172.243 115.803 172.923 115.68 173.677 115.68ZM173.677 124.62C174.637 124.62 175.353 124.297 175.827 123.65C176.3 123.003 176.537 122.093 176.537 120.92C176.537 119.747 176.3 118.837 175.827 118.19C175.353 117.537 174.637 117.21 173.677 117.21C172.703 117.21 171.977 117.537 171.497 118.19C171.023 118.837 170.787 119.747 170.787 120.92C170.787 122.093 171.023 123.003 171.497 123.65C171.977 124.297 172.703 124.62 173.677 124.62ZM182.563 117.25C182.783 117.017 183.013 116.803 183.253 116.61C183.493 116.417 183.747 116.253 184.013 116.12C184.287 115.98 184.577 115.873 184.883 115.8C185.197 115.72 185.53 115.68 185.883 115.68C186.443 115.68 186.933 115.773 187.353 115.96C187.78 116.147 188.137 116.41 188.423 116.75C188.71 117.083 188.927 117.487 189.073 117.96C189.22 118.433 189.293 118.957 189.293 119.53V126H187.333V119.53C187.333 118.803 187.167 118.24 186.833 117.84C186.5 117.433 185.99 117.23 185.303 117.23C184.803 117.23 184.333 117.35 183.893 117.59C183.46 117.823 183.057 118.143 182.683 118.55V126H180.733V115.84H181.903C182.177 115.84 182.347 115.97 182.413 116.23L182.563 117.25ZM197.385 121.49C196.591 121.517 195.918 121.58 195.365 121.68C194.811 121.773 194.361 121.9 194.015 122.06C193.668 122.22 193.418 122.41 193.265 122.63C193.111 122.843 193.035 123.083 193.035 123.35C193.035 123.603 193.075 123.823 193.155 124.01C193.241 124.19 193.355 124.34 193.495 124.46C193.641 124.573 193.811 124.657 194.005 124.71C194.198 124.763 194.408 124.79 194.635 124.79C194.935 124.79 195.208 124.76 195.455 124.7C195.708 124.64 195.945 124.557 196.165 124.45C196.385 124.337 196.595 124.2 196.795 124.04C196.995 123.88 197.191 123.697 197.385 123.49V121.49ZM191.665 117.26C192.231 116.72 192.845 116.317 193.505 116.05C194.171 115.783 194.901 115.65 195.695 115.65C196.275 115.65 196.788 115.747 197.235 115.94C197.681 116.127 198.058 116.39 198.365 116.73C198.671 117.07 198.901 117.477 199.055 117.95C199.215 118.423 199.295 118.947 199.295 119.52V126H198.425C198.231 126 198.085 125.97 197.985 125.91C197.885 125.843 197.805 125.723 197.745 125.55L197.535 124.66C197.275 124.9 197.018 125.113 196.765 125.3C196.511 125.48 196.245 125.637 195.965 125.77C195.691 125.897 195.398 125.993 195.085 126.06C194.771 126.127 194.425 126.16 194.045 126.16C193.645 126.16 193.268 126.107 192.915 126C192.568 125.887 192.265 125.717 192.005 125.49C191.745 125.263 191.538 124.98 191.385 124.64C191.238 124.3 191.165 123.903 191.165 123.45C191.165 123.05 191.271 122.667 191.485 122.3C191.705 121.927 192.058 121.593 192.545 121.3C193.038 121.007 193.678 120.767 194.465 120.58C195.258 120.393 196.231 120.287 197.385 120.26V119.52C197.385 118.753 197.221 118.18 196.895 117.8C196.568 117.42 196.088 117.23 195.455 117.23C195.028 117.23 194.668 117.283 194.375 117.39C194.088 117.497 193.838 117.617 193.625 117.75C193.418 117.877 193.235 117.993 193.075 118.1C192.921 118.207 192.761 118.26 192.595 118.26C192.461 118.26 192.345 118.223 192.245 118.15C192.151 118.077 192.075 117.99 192.015 117.89L191.665 117.26ZM203.905 111.24V126H201.945V111.24H203.905ZM216.499 119.03C217.039 119.03 217.512 118.96 217.919 118.82C218.332 118.68 218.676 118.483 218.949 118.23C219.229 117.97 219.439 117.663 219.579 117.31C219.719 116.95 219.789 116.553 219.789 116.12C219.789 115.247 219.516 114.56 218.969 114.06C218.429 113.56 217.606 113.31 216.499 113.31H214.279V119.03H216.499ZM216.499 111.64C217.419 111.64 218.219 111.747 218.899 111.96C219.579 112.173 220.142 112.477 220.589 112.87C221.036 113.257 221.366 113.727 221.579 114.28C221.799 114.833 221.909 115.447 221.909 116.12C221.909 116.793 221.792 117.413 221.559 117.98C221.326 118.54 220.982 119.023 220.529 119.43C220.076 119.837 219.509 120.153 218.829 120.38C218.156 120.6 217.379 120.71 216.499 120.71H214.279V126H212.149V111.64H216.499ZM225.523 117.79C225.849 117.123 226.243 116.6 226.703 116.22C227.163 115.84 227.716 115.65 228.363 115.65C228.583 115.65 228.789 115.677 228.983 115.73C229.183 115.777 229.356 115.85 229.503 115.95L229.373 117.42C229.326 117.6 229.216 117.69 229.043 117.69C228.949 117.69 228.809 117.673 228.623 117.64C228.436 117.6 228.236 117.58 228.023 117.58C227.709 117.58 227.433 117.627 227.193 117.72C226.953 117.807 226.736 117.94 226.543 118.12C226.356 118.293 226.189 118.51 226.043 118.77C225.896 119.023 225.759 119.313 225.633 119.64V126H223.683V115.84H224.803C225.016 115.84 225.159 115.88 225.233 115.96C225.313 116.033 225.369 116.167 225.403 116.36L225.523 117.79ZM234.966 115.68C235.712 115.68 236.386 115.803 236.986 116.05C237.592 116.29 238.106 116.64 238.526 117.1C238.952 117.553 239.279 118.103 239.506 118.75C239.732 119.39 239.846 120.11 239.846 120.91C239.846 121.71 239.732 122.433 239.506 123.08C239.279 123.727 238.952 124.277 238.526 124.73C238.106 125.183 237.592 125.533 236.986 125.78C236.386 126.02 235.712 126.14 234.966 126.14C234.212 126.14 233.532 126.02 232.926 125.78C232.326 125.533 231.812 125.183 231.386 124.73C230.959 124.277 230.629 123.727 230.396 123.08C230.169 122.433 230.056 121.71 230.056 120.91C230.056 120.11 230.169 119.39 230.396 118.75C230.629 118.103 230.959 117.553 231.386 117.1C231.812 116.64 232.326 116.29 232.926 116.05C233.532 115.803 234.212 115.68 234.966 115.68ZM234.966 124.62C235.926 124.62 236.642 124.297 237.116 123.65C237.589 123.003 237.826 122.093 237.826 120.92C237.826 119.747 237.589 118.837 237.116 118.19C236.642 117.537 235.926 117.21 234.966 117.21C233.992 117.21 233.266 117.537 232.786 118.19C232.312 118.837 232.076 119.747 232.076 120.92C232.076 122.093 232.312 123.003 232.786 123.65C233.266 124.297 233.992 124.62 234.966 124.62ZM248.572 118.3C248.252 117.88 247.906 117.587 247.532 117.42C247.166 117.253 246.752 117.17 246.292 117.17C245.399 117.17 244.706 117.493 244.212 118.14C243.726 118.78 243.482 119.717 243.482 120.95C243.482 121.597 243.536 122.15 243.642 122.61C243.756 123.063 243.916 123.437 244.122 123.73C244.336 124.017 244.596 124.23 244.902 124.37C245.209 124.503 245.556 124.57 245.942 124.57C246.509 124.57 246.999 124.443 247.412 124.19C247.826 123.937 248.212 123.58 248.572 123.12V118.3ZM250.532 111.24V126H249.352C249.079 126 248.909 125.87 248.842 125.61L248.672 124.44C248.239 124.953 247.746 125.367 247.192 125.68C246.646 125.987 246.012 126.14 245.292 126.14C244.712 126.14 244.186 126.027 243.712 125.8C243.246 125.573 242.846 125.243 242.512 124.81C242.179 124.37 241.922 123.827 241.742 123.18C241.562 122.533 241.472 121.79 241.472 120.95C241.472 120.197 241.572 119.497 241.772 118.85C241.972 118.203 242.262 117.643 242.642 117.17C243.022 116.697 243.482 116.327 244.022 116.06C244.562 115.787 245.172 115.65 245.852 115.65C246.466 115.65 246.986 115.75 247.412 115.95C247.846 116.15 248.232 116.433 248.572 116.8V111.24H250.532ZM261.703 115.84V126H260.533C260.266 126 260.093 125.87 260.013 125.61L259.873 124.59C259.653 124.823 259.423 125.037 259.183 125.23C258.943 125.423 258.686 125.59 258.413 125.73C258.139 125.863 257.849 125.967 257.543 126.04C257.236 126.12 256.906 126.16 256.553 126.16C255.993 126.16 255.499 126.067 255.073 125.88C254.653 125.693 254.299 125.433 254.013 125.1C253.726 124.76 253.509 124.353 253.363 123.88C253.216 123.407 253.143 122.883 253.143 122.31V115.84H255.103V122.31C255.103 123.037 255.269 123.603 255.603 124.01C255.936 124.41 256.446 124.61 257.133 124.61C257.633 124.61 258.099 124.493 258.533 124.26C258.966 124.02 259.373 123.693 259.753 123.28V115.84H261.703ZM271.545 117.74C271.485 117.813 271.425 117.873 271.365 117.92C271.311 117.96 271.231 117.98 271.125 117.98C271.018 117.98 270.905 117.94 270.785 117.86C270.671 117.773 270.525 117.683 270.345 117.59C270.171 117.49 269.958 117.4 269.705 117.32C269.458 117.233 269.151 117.19 268.785 117.19C268.305 117.19 267.881 117.277 267.515 117.45C267.148 117.623 266.841 117.87 266.595 118.19C266.355 118.51 266.171 118.9 266.045 119.36C265.918 119.82 265.855 120.337 265.855 120.91C265.855 121.503 265.921 122.033 266.055 122.5C266.188 122.96 266.378 123.35 266.625 123.67C266.871 123.983 267.171 124.223 267.525 124.39C267.878 124.55 268.271 124.63 268.705 124.63C269.125 124.63 269.471 124.58 269.745 124.48C270.018 124.373 270.245 124.26 270.425 124.14C270.605 124.02 270.755 123.91 270.875 123.81C270.995 123.703 271.118 123.65 271.245 123.65C271.405 123.65 271.528 123.71 271.615 123.83L272.175 124.55C271.941 124.837 271.678 125.08 271.385 125.28C271.098 125.48 270.791 125.643 270.465 125.77C270.138 125.897 269.795 125.99 269.435 126.05C269.081 126.11 268.721 126.14 268.355 126.14C267.721 126.14 267.128 126.023 266.575 125.79C266.028 125.557 265.551 125.217 265.145 124.77C264.745 124.323 264.428 123.777 264.195 123.13C263.961 122.477 263.845 121.737 263.845 120.91C263.845 120.157 263.948 119.46 264.155 118.82C264.368 118.18 264.678 117.63 265.085 117.17C265.498 116.703 266.005 116.34 266.605 116.08C267.205 115.813 267.891 115.68 268.665 115.68C269.391 115.68 270.031 115.797 270.585 116.03C271.138 116.263 271.631 116.593 272.065 117.02L271.545 117.74ZM277.175 126.16C276.355 126.16 275.722 125.93 275.275 125.47C274.835 125.01 274.615 124.353 274.615 123.5V117.42H273.435C273.322 117.42 273.225 117.387 273.145 117.32C273.072 117.247 273.035 117.14 273.035 117V116.21L274.685 115.98L275.125 112.95C275.152 112.837 275.202 112.75 275.275 112.69C275.355 112.623 275.455 112.59 275.575 112.59H276.565V116H279.445V117.42H276.565V123.37C276.565 123.77 276.662 124.07 276.855 124.27C277.055 124.463 277.308 124.56 277.615 124.56C277.795 124.56 277.948 124.537 278.075 124.49C278.208 124.443 278.322 124.393 278.415 124.34C278.508 124.28 278.588 124.227 278.655 124.18C278.722 124.133 278.782 124.11 278.835 124.11C278.902 124.11 278.952 124.127 278.985 124.16C279.025 124.187 279.065 124.233 279.105 124.3L279.685 125.24C279.365 125.533 278.985 125.76 278.545 125.92C278.105 126.08 277.648 126.16 277.175 126.16ZM287.231 117.59C287.178 117.677 287.121 117.74 287.061 117.78C287.001 117.813 286.924 117.83 286.831 117.83C286.724 117.83 286.604 117.793 286.471 117.72C286.344 117.647 286.188 117.567 286.001 117.48C285.821 117.393 285.608 117.313 285.361 117.24C285.114 117.167 284.821 117.13 284.481 117.13C284.201 117.13 283.944 117.167 283.711 117.24C283.484 117.307 283.291 117.403 283.131 117.53C282.971 117.65 282.848 117.797 282.761 117.97C282.674 118.137 282.631 118.317 282.631 118.51C282.631 118.763 282.704 118.973 282.851 119.14C283.004 119.307 283.201 119.45 283.441 119.57C283.688 119.69 283.964 119.8 284.271 119.9C284.584 119.993 284.901 120.093 285.221 120.2C285.548 120.307 285.864 120.43 286.171 120.57C286.484 120.703 286.761 120.873 287.001 121.08C287.248 121.28 287.444 121.523 287.591 121.81C287.744 122.097 287.821 122.447 287.821 122.86C287.821 123.333 287.734 123.773 287.561 124.18C287.394 124.58 287.144 124.927 286.811 125.22C286.484 125.513 286.078 125.743 285.591 125.91C285.104 126.077 284.548 126.16 283.921 126.16C283.221 126.16 282.574 126.043 281.981 125.81C281.388 125.577 280.891 125.28 280.491 124.92L280.951 124.17C281.004 124.077 281.071 124.007 281.151 123.96C281.231 123.907 281.338 123.88 281.471 123.88C281.598 123.88 281.728 123.927 281.861 124.02C281.994 124.113 282.154 124.217 282.341 124.33C282.528 124.437 282.754 124.537 283.021 124.63C283.288 124.717 283.621 124.76 284.021 124.76C284.354 124.76 284.644 124.72 284.891 124.64C285.138 124.553 285.341 124.44 285.501 124.3C285.668 124.153 285.791 123.987 285.871 123.8C285.951 123.613 285.991 123.417 285.991 123.21C285.991 122.943 285.914 122.723 285.761 122.55C285.614 122.37 285.418 122.217 285.171 122.09C284.931 121.963 284.654 121.853 284.341 121.76C284.028 121.667 283.708 121.567 283.381 121.46C283.054 121.353 282.734 121.23 282.421 121.09C282.108 120.95 281.828 120.773 281.581 120.56C281.341 120.347 281.144 120.087 280.991 119.78C280.844 119.473 280.771 119.1 280.771 118.66C280.771 118.267 280.851 117.89 281.011 117.53C281.178 117.17 281.414 116.853 281.721 116.58C282.034 116.307 282.418 116.09 282.871 115.93C283.331 115.763 283.854 115.68 284.441 115.68C285.114 115.68 285.721 115.787 286.261 116C286.808 116.213 287.274 116.507 287.661 116.88L287.231 117.59Z" fill="#1B1A17"/>
</svg>
